<svg xmlns="http://www.w3.org/2000/svg" version="1.1" xmlns:xlink="http://www.w3.org/1999/xlink" xmlns:svgjs="http://svgjs.dev/svgjs" width="1500" height="484" viewBox="0 0 1500 484"><g transform="matrix(1,0,0,1,-0.9090909090909918,0.7668062142849124)"><svg viewBox="0 0 396 128" data-background-color="#e9efe7" preserveAspectRatio="xMidYMid meet" height="484" width="1500" xmlns="http://www.w3.org/2000/svg" xmlns:xlink="http://www.w3.org/1999/xlink"><g id="tight-bounds" transform="matrix(1,0,0,1,0.2400000000000091,-0.20279172609187412)"><svg viewBox="0 0 395.52 128.40558345218378" height="128.40558345218378" width="395.52"><g><svg viewBox="0 0 519.6949184894569 168.71897559105432" height="128.40558345218378" width="395.52"><g transform="matrix(1,0,0,1,124.17491848945687,52.136612396166136)"><svg viewBox="0 0 395.52 64.44575079872205" height="64.44575079872205" width="395.52"><g id="textblocktransform"><svg viewBox="0 0 395.52 64.44575079872205" height="64.44575079872205" width="395.52" id="textblock"><g><svg viewBox="0 0 395.52 64.44575079872205" height="64.44575079872205" width="395.52"><g transform="matrix(1,0,0,1,0,0)"><svg width="395.52" viewBox="6.5 -35 218.59 35.7" height="64.44575079872205" data-palette-color="#ffffff"><g class="wordmark-text-0" data-fill-palette-color="primary" id="text-0"><path d="M9.9 0L6.5 0 6.5-35 12.75-35Q18.8-35 22.15-32.43 25.5-29.85 25.5-25.25L25.5-25.25Q25.5-20.65 22.15-18.07 18.8-15.5 12.75-15.5L12.75-15.5 9.9-15.5 9.9 0ZM12.75-33.8L12.75-33.8 9.9-33.8 9.9-16.7 12.75-16.7Q21.9-16.7 21.9-25.25L21.9-25.25Q21.9-33.8 12.75-33.8ZM34.5-14L34.5-35 37.9-35 37.9-13.9Q37.9-7.85 40.87-4.48 43.85-1.1 49.25-1.1L49.25-1.1Q52.65-1.1 55.17-2.43 57.7-3.75 59.07-6.1 60.45-8.45 60.35-11.5L60.35-11.5 59.5-35 62.9-35 62.05-11.5Q61.85-5.5 58.47-2.4 55.1 0.7 48.85 0.7L48.85 0.7Q42.1 0.7 38.3-3.23 34.5-7.15 34.5-14L34.5-14ZM74.9 0L74.9-35 81.6-35Q86.9-35 89.82-32.77 92.75-30.55 92.75-26.55L92.75-26.55Q92.75-23.45 90.92-21.4 89.1-19.35 85.65-18.65L85.65-18.65 85.65-18.35Q88.95-17.7 91.05-15.25 93.15-12.8 94.2-9.2L94.2-9.2Q95.15-5.9 96.07-4.08 97-2.25 98.12-1.45 99.25-0.65 100.8-0.3L100.8-0.3 100.8 0 98.75 0Q96.55 0 95.12-0.8 93.7-1.6 92.7-3.5 91.7-5.4 90.8-8.75L90.8-8.75Q89.35-13.9 86.95-16.05 84.55-18.2 81.1-18.2L81.1-18.2 80.8-18.2 80.8-19.1 81.1-19.1Q89.15-19.1 89.15-26.5L89.15-26.5Q89.15-33.8 81.6-33.8L81.6-33.8 78.3-33.8 78.3 0 74.9 0ZM105.44 0L101.79 0 115.24-35 118.34-35 131.79 0 128.14 0 121.94-16.4 110.59-16.4 105.44 0ZM115.89-32.4L115.59-32.4 110.94-17.6 121.49-17.6 115.89-32.4ZM139.89 0L139.89-35 143.29-35 143.29-1Q144.24-1 146.29-1.3L146.29-1.3 154.59-2.55 154.59 0 139.89 0ZM162.44-14L162.44-35 165.84-35 165.84-13.9Q165.84-7.85 168.81-4.48 171.79-1.1 177.19-1.1L177.19-1.1Q180.59-1.1 183.11-2.43 185.64-3.75 187.01-6.1 188.39-8.45 188.29-11.5L188.29-11.5 187.44-35 190.84-35 189.99-11.5Q189.79-5.5 186.41-2.4 183.04 0.7 176.79 0.7L176.79 0.7Q170.04 0.7 166.24-3.23 162.44-7.15 162.44-14L162.44-14ZM225.09-2.55L225.09 0 198.59 0 198.59-1 220.89-34Q220.09-34 217.24-33.8L217.24-33.8 199.89-32.55 199.89-35 224.89-35 224.89-34 202.59-1Q203.44-1 206.24-1.2L206.24-1.2 225.09-2.55Z" fill="#ffffff" data-fill-palette-color="primary"></path></g></svg></g></svg></g></svg></g></svg></g><g><svg viewBox="0 0 108.96082342389776 168.71897559105432" height="168.71897559105432" width="108.96082342389776"><g><svg xmlns="http://www.w3.org/2000/svg" xmlns:xlink="http://www.w3.org/1999/xlink" version="1.1" x="0" y="0" viewBox="90.67200000000003 0 330.656 512" enable-background="new 0 0 512 512" xml:space="preserve" height="168.71897559105432" width="108.96082342389776" class="icon-icon-0" data-fill-palette-color="accent" id="icon-0"><path fill="#ffffff" d="M240 256c0-115.414 76.375-212.977 181.328-244.938C397.703 3.875 372.641 0 346.672 0c-141.391 0-256 114.617-256 256s114.609 256 256 256c25.969 0 51.031-3.875 74.656-11.062C316.375 468.984 240 371.406 240 256zM346.672 490.672c-31.688 0-62.422-6.203-91.344-18.438-27.938-11.82-53.031-28.742-74.594-50.297-21.562-21.562-38.484-46.656-50.297-74.602C118.203 318.422 112 287.688 112 256s6.203-62.422 18.438-91.336c11.812-27.945 28.734-53.039 50.297-74.602 21.562-21.555 46.656-38.477 74.594-50.297 28.922-12.234 59.656-18.43 91.344-18.43 0.344 0 0.703 0 1.047 0C268.422 71.086 218.672 158.406 218.672 256s49.75 184.914 129.047 234.672C347.375 490.672 347.016 490.672 346.672 490.672z" data-fill-palette-color="accent"></path></svg></g></svg></g></svg></g><defs></defs></svg><rect width="395.52" height="128.40558345218378" fill="none" stroke="none" visibility="hidden"></rect></g></svg></g></svg>